<svg width="1200" height="1200" xmlns="http://www.w3.org/2000/svg" stroke="null" style="vector-effect: non-scaling-stroke;" preserveAspectRatio="xMidYMid meet" version="1.0">

 <g stroke="null">
  <title stroke="null">Layer 1</title>
  <g stroke="null" id="svg_1" fill="#000000" transform="translate(0 501) scale(0.1 -0.1)">
   <path fill="#ffffff" stroke="null" id="svg_2" d="m6547.99415,1842.68486c-156.97521,-7.82792 -422.04713,-58.15023 -422.04713,-79.39743c0,-8.94619 187.0543,-120.77356 201.15387,-120.77356c13.1596,0 230.29298,-129.71975 278.23152,-165.50451c62.97808,-48.08577 108.0967,-91.69844 94.93711,-91.69844c-8.45974,0 -231.23295,102.88118 -315.83037,146.49385c-68.61791,34.66648 -354.3692,136.42939 -493.48495,175.56897c-75.19771,21.2472 -107.15673,29.07512 -234.99284,57.03196c-188.93424,41.37613 -410.76748,43.61267 -507.58452,5.59137c-138.17579,-53.67714 -169.19484,-119.65529 -169.19484,-363.43895c0,-134.19284 5.63983,-191.2248 30.07908,-311.99836c10.33968,-52.55886 40.41877,-167.74105 54.51834,-206.88063c3.75989,-12.30101 16.91948,-50.32232 28.19914,-83.87053c11.27966,-33.54821 45.11862,-119.65529 75.19771,-190.10653c168.25487,-399.22371 420.16719,-732.46927 775.47636,-1025.45698c111.85659,-91.69844 416.4073,-266.14914 538.60358,-307.52527c31.01905,-10.06446 41.35874,-31.31166 15.97951,-31.31166c-28.19914,0 -285.75129,84.9888 -338.38968,111.82737c-10.33968,5.59137 -37.59885,19.01065 -61.09814,29.07512c-183.29441,88.34362 -417.34728,270.62223 -610.98137,477.50287c-212.43352,225.89129 -383.50831,506.57798 -497.24484,812.98498c-74.25774,200.17099 -125.01619,433.89019 -137.23582,637.41601c-7.51977,116.30046 -15.03954,144.25731 -40.41877,143.13903c-8.45974,0 -88.35731,3.35482 -176.71461,8.94619c-239.69269,12.30101 -567.74269,-19.01065 -892.0328,-86.10707c-620.38109,-126.36493 -1289.64068,-418.23436 -1978.63967,-863.30729c-116.55645,-76.04261 -172.01476,-112.94564 -339.32965,-231.48265c-13.1596,-8.94619 -54.51834,-39.13958 -92.11719,-67.09642c-37.59885,-27.95684 -81.77751,-59.26851 -97.75702,-71.56952c-35.71891,-24.60202 -429.5669,-344.4283 -476.56547,-386.9227c-17.85946,-15.65583 -66.73797,-59.26851 -108.0967,-95.05326c-187.0543,-165.50451 -594.06189,-562.49167 -617.56117,-602.74952c-11.27966,-20.12893 6.5798,-30.19339 31.01905,-20.12893c12.21963,5.59137 44.17865,13.41928 69.55788,17.89238c26.3192,4.47309 93.99713,25.72029 150.39541,48.08577c57.33825,21.2472 118.43639,43.61267 136.29584,49.20404c139.11576,39.13958 195.51404,52.55886 277.29155,67.09642c36.65888,5.59137 91.17722,15.65583 122.19627,21.2472c381.62836,67.09642 563.98281,83.87053 734.11762,68.2147c369.40874,-35.78476 722.83796,-110.7091 924.9318,-196.81617c151.33539,-64.85987 459.64599,-263.91259 595.00186,-383.56788c78.01762,-70.45124 329.92994,-370.14859 385.38825,-460.72876c43.23868,-71.56952 91.17722,-134.19284 102.45688,-134.19284c3.75989,0 8.45974,228.12783 9.39971,506.57798l2.81991,505.45971l494.42493,3.35482c389.14814,2.23655 497.24484,-1.11827 503.82464,-11.18274c9.39971,-14.53756 31.95903,-62.62333 106.21676,-227.00956c70.49785,-157.67659 105.27679,-233.7192 126.89613,-279.56842c11.27966,-24.60202 37.59885,-82.75225 59.21819,-128.60147c20.67937,-45.84922 59.21819,-130.83802 85.53739,-188.98825c26.3192,-58.15023 47.93854,-107.35427 47.93854,-109.59082c0,-10.06446 38.53883,-70.45124 45.11862,-70.45124c3.75989,0 13.1596,16.77411 19.7394,35.78476c7.51977,20.12893 27.25917,64.85987 43.23868,98.40809c16.91948,33.54821 46.99857,99.52636 67.67794,145.37558c20.67937,45.84922 48.87851,109.59082 63.91805,139.78421c41.35874,88.34362 84.59742,184.51516 120.31633,262.79432c17.85946,40.25785 46.0586,102.88118 62.97808,139.78421c16.91948,36.90303 41.35874,89.4619 54.51834,117.41874c12.21963,27.95684 27.25917,57.03196 31.95903,64.85987c7.51977,10.06446 118.43639,13.41928 518.86418,11.18274l508.5245,-3.35482l2.81991,-987.43567c1.87994,-778.31849 4.69986,-986.3174 14.09957,-986.3174c5.63983,1.11827 43.23868,26.83857 81.77751,59.26851c54.51834,45.84922 78.01762,73.80606 103.39685,125.24665c57.33825,117.41874 219.95329,301.9339 328.98997,373.50341c131.59599,87.22535 273.53166,150.96695 422.9871,190.10653c150.39541,38.02131 194.57407,43.61267 535.78366,58.15023c623.201,25.72029 715.31819,30.19339 720.01805,35.78476c2.81991,3.35482 -5.63983,32.42994 -17.85946,65.97815c-13.1596,32.42994 -35.71891,92.81672 -51.69842,133.07457c-59.21819,153.2035 -59.21819,204.64409 2.81991,279.56842c42.29871,52.55886 151.33539,98.40809 338.38968,143.13903c31.01905,7.82792 69.55788,17.89238 85.53739,24.60202c15.97951,5.59137 35.71891,10.06446 44.17865,10.06446c23.49928,0 210.55358,54.79541 250.03238,72.68779c27.25917,13.41928 173.8947,51.44059 348.72937,91.69844c76.13768,17.89238 273.53166,64.85987 437.08667,103.99945c103.39685,24.60202 211.49355,50.32232 239.69269,57.03196c28.19914,6.70964 68.61791,16.77411 89.29728,21.2472c20.67937,5.59137 47.93854,12.30101 61.09814,14.53756c13.1596,3.35482 78.95759,19.01065 145.69556,35.78476c67.67794,16.77411 135.35587,32.42994 151.33539,34.66648c46.99857,5.59137 401.36776,107.35427 483.14527,138.66594c129.71605,50.32232 168.25487,70.45124 250.03238,136.42939c88.35731,71.56952 112.79656,110.7091 200.2139,318.708c96.81705,231.48265 110.91662,270.62223 138.17579,367.91205c42.29871,155.44004 39.4788,214.70855 -14.09957,279.56842c-37.59885,44.73095 -118.43639,90.58017 -177.65458,100.64463c-44.17865,6.70964 -49.81848,4.47309 -71.43782,-23.48375c-13.1596,-16.77411 -24.43925,-36.90303 -24.43925,-43.61267c0,-10.06446 -15.03954,-59.26851 -57.33825,-180.04206c-3.75989,-12.30101 -12.21963,-42.4944 -18.79943,-67.09642c-5.63983,-24.60202 -16.91948,-59.26851 -23.49928,-78.27916c-12.21963,-31.31166 -13.1596,-25.72029 -8.45974,61.50505c4.69986,86.10707 16.91948,158.79486 44.17865,268.38569c4.69986,21.2472 11.27966,57.03196 14.09957,79.39743l4.69986,40.25785l-97.75702,46.9675c-101.5169,50.32232 -188.93424,93.93499 -239.69269,120.77356c-16.91948,7.82792 -59.21819,27.95684 -93.99713,43.61267c-35.71891,15.65583 -78.95759,35.78476 -96.81705,45.84922c-33.83897,17.89238 -65.79799,33.54821 -98.69699,49.20404c-62.97808,29.07512 -282.93137,118.53701 -469.98567,188.98825c-50.75845,19.01065 -346.84943,125.24665 -375.98854,135.31112c-60.15817,19.01065 -104.33682,33.54821 -131.59599,43.61267c-15.03954,4.47309 -51.69842,16.77411 -79.89756,25.72029c-165.43496,54.79541 -208.67364,68.2147 -267.89183,88.34362c-35.71891,12.30101 -80.83754,26.83857 -98.69699,31.31166c-17.85946,5.59137 -66.73797,19.01065 -108.0967,31.31166c-72.37779,21.2472 -375.98854,105.11773 -540.48352,149.84867c-44.17865,12.30101 -96.81705,26.83857 -117.49642,32.42994c-20.67937,5.59137 -58.27822,14.53756 -84.59742,20.12893c-25.37923,5.59137 -78.95759,17.89238 -117.49642,27.95684c-38.53883,8.94619 -121.2563,27.95684 -183.29441,40.25785c-62.03811,13.41928 -136.29584,29.07512 -164.49498,34.66648c-259.43209,55.91368 -277.29155,59.26851 -742.57736,120.77356c-286.69126,39.13958 -672.07951,71.56952 -766.07664,65.97815c-15.03954,0 -98.69699,-4.47309 -184.23438,-10.06446zm-1086.60687,-551.30893c248.15243,-96.17154 489.72507,-227.00956 655.16003,-354.49276c131.59599,-101.76291 295.151,-263.91259 339.32965,-336.60038l18.79943,-30.19339l-35.71891,16.77411c-19.7394,10.06446 -61.09814,31.31166 -92.11719,49.20404c-165.43496,91.69844 -183.29441,99.52636 -183.29441,79.39743c0,-5.59137 38.53883,-79.39743 84.59742,-162.14969c46.99857,-83.87053 84.59742,-157.67659 84.59742,-164.38623c0,-5.59137 -17.85946,3.35482 -39.4788,21.2472c-84.59742,69.33297 -282.93137,168.85933 -294.21103,148.7304c-2.81991,-5.59137 58.27822,-98.40809 136.29584,-206.88063c77.07765,-108.47255 140.9957,-201.28926 140.9957,-207.99891c0,-16.77411 -15.03954,-14.53756 -86.47736,16.77411c-73.31776,31.31166 -92.11719,34.66648 -92.11719,13.41928c0,-14.53756 158.85516,-270.62223 221.83324,-358.96586c17.85946,-24.60202 31.95903,-48.08577 31.95903,-53.67714c0,-26.83857 -219.95329,144.25731 -375.98854,291.86943c-222.77321,212.472 -438.02665,497.63179 -551.76318,733.58754c-93.05716,192.34308 -125.01619,296.34253 -125.01619,410.40645c0,67.09642 2.81991,80.51571 23.49928,103.99945c12.21963,15.65583 27.25917,27.95684 32.899,27.95684c5.63983,0 52.6384,-16.77411 106.21676,-38.02131zm2967.48953,-398.10543c90.23725,-19.01065 213.37349,-44.73095 272.59169,-57.03196c59.21819,-12.30101 131.59599,-26.83857 159.79513,-32.42994c28.19914,-6.70964 68.61791,-15.65583 89.29728,-21.2472c20.67937,-5.59137 61.09814,-15.65583 89.29728,-23.48375c93.05716,-24.60202 115.61648,-30.19339 267.89183,-72.68779c163.55501,-45.84922 199.27392,-54.79541 249.09241,-67.09642c42.29871,-10.06446 84.59742,-29.07512 84.59742,-38.02131c0,-3.35482 -31.01905,-24.60202 -68.61791,-48.08577c-77.07765,-45.84922 -93.05716,-49.20404 -410.76748,-63.7416c-216.19341,-11.18274 -331.80988,-7.82792 -437.08667,12.30101c-212.43352,39.13958 -322.41017,110.7091 -407.94756,265.03087c-30.07908,52.55886 -49.81848,68.2147 -118.43639,89.4619c-25.37923,8.94619 -63.91805,21.2472 -84.59742,29.07512c-20.67937,7.82792 -56.39828,20.12893 -78.95759,27.95684c-67.67794,21.2472 -29.13911,33.54821 107.15673,33.54821c93.99713,0 159.79513,-7.82792 286.69126,-33.54821zm1130.78552,-1562.22835c-6.5798,-2.23655 -17.85946,-2.23655 -23.49928,0c-6.5798,3.35482 -1.87994,5.59137 11.27966,5.59137c13.1596,0 17.85946,-2.23655 12.21963,-5.59137zm-40.41877,-13.41928c0,-5.59137 -11.27966,-13.41928 -25.37923,-16.77411c-29.13911,-8.94619 -143.81562,-48.08577 -181.41447,-62.62333c-13.1596,-5.59137 -55.45831,-21.2472 -93.99713,-34.66648c-96.81705,-33.54821 -331.80988,-125.24665 -394.78796,-154.32177c-118.43639,-53.67714 -396.66791,-230.36438 -436.1467,-277.33188c-58.27822,-68.2147 -76.13768,-142.02076 -67.67794,-282.92324c2.81991,-59.26851 9.39971,-134.19284 15.03954,-166.62278c11.27966,-70.45124 4.69986,-89.4619 -17.85946,-54.79541c-22.55931,34.66648 -70.49785,159.91314 -84.59742,221.41819c-7.51977,27.95684 -15.97951,64.85987 -20.67937,82.75225c-16.91948,63.7416 -10.33968,138.66594 15.97951,184.51516c35.71891,64.85987 163.55501,168.85933 313.95043,254.9664c71.43782,41.37613 279.17149,126.36493 469.98567,193.46135c38.53883,13.41928 80.83754,29.07512 93.99713,33.54821c135.35587,54.79541 413.58739,107.35427 413.58739,79.39743zm-2973.12935,-74.92434c-2.81991,-3.35482 -11.27966,-4.47309 -17.85946,-1.11827c-7.51977,3.35482 -4.69986,6.70964 5.63983,6.70964c10.33968,1.11827 15.97951,-2.23655 12.21963,-5.59137z"/>
   <path fill="#ffffff" stroke="null" id="svg_3" d="m4574.9943,-2920.0428l0,-782.79159l468.10573,0c351.54928,0 470.92564,3.35482 479.38538,13.41928c14.09957,16.77411 16.91948,1552.16389 2.81991,1552.16389c-4.69986,0 -11.27966,-8.94619 -14.09957,-19.01065c-3.75989,-10.06446 -106.21676,-201.28926 -228.41304,-424.944c-193.6341,-353.37449 -247.21246,-439.48156 -247.21246,-395.86889c0,7.82792 -320.53023,606.10434 -402.30773,750.36165c-9.39971,15.65583 -22.55931,41.37613 -29.13911,59.26851c-7.51977,16.77411 -16.91948,30.19339 -21.61934,30.19339c-3.75989,0 -7.51977,-352.25621 -7.51977,-782.79159z"/>
  </g>
 </g>
</svg>